<svg xmlns="http://www.w3.org/2000/svg" viewBox="0 0 411 411"><defs><style>.cls-1{fill:#2b2b2b;}.cls-2{fill:#fff;}</style></defs><title>Visible Logo</title><g id="Layer_2" data-name="Layer 2"><rect class="cls-1" width="411" height="411"/></g><g id="Layer_3" data-name="Layer 3"><path class="cls-2" d="M141,179.28h7.75v23H141Z" transform="translate(0 0)"/><path class="cls-2" d="M130.07,179.28l-9.73,23h-7.62l-9.72-23h8.34l5.49,13.44,5.62-13.44Z" transform="translate(0 0)"/><path class="cls-2" d="M112.25,231.08a15.21,15.21,0,0,1-4.46-1.73l2.5-5.65a15.63,15.63,0,0,0,3.68,1.53,14.5,14.5,0,0,0,3.91.57,6,6,0,0,0,2.3-.31,1,1,0,0,0,.69-.93c0-.49-.3-.85-.9-1.09a20.57,20.57,0,0,0-3-.79,32.86,32.86,0,0,1-4.43-1.2,7.48,7.48,0,0,1-3.09-2.1,5.67,5.67,0,0,1-1.31-4,6.82,6.82,0,0,1,1.21-3.94,8,8,0,0,1,3.63-2.79,15.09,15.09,0,0,1,5.87-1,21.21,21.21,0,0,1,4.64.51,14.43,14.43,0,0,1,4,1.5l-2.34,5.61a14.22,14.22,0,0,0-6.4-1.71c-2,0-3,.49-3,1.45,0,.46.3.8.89,1a18.26,18.26,0,0,0,2.92.74,30.14,30.14,0,0,1,4.44,1.14,7.69,7.69,0,0,1,3.13,2.08,5.59,5.59,0,0,1,1.33,3.94,6.74,6.74,0,0,1-1.21,3.93,8.19,8.19,0,0,1-3.63,2.79,14.89,14.89,0,0,1-5.87,1A24.44,24.44,0,0,1,112.25,231.08Z" transform="translate(0 0)"/><path class="cls-2" d="M141,202.28h7.75v28.91H141Z" transform="translate(0 0)"/><path class="cls-2" d="M187.84,180.28c6.78,0,11.94,1.19,15.34,3.54a10.41,10.41,0,0,1,4.94,9,11,11,0,0,1-1.69,6,12.08,12.08,0,0,1-5.05,4.31l-2.09,1,2.19.8a14.87,14.87,0,0,1,6.78,4.65,11.45,11.45,0,0,1,2.34,7.24,10.89,10.89,0,0,1-5.26,9.73c-3.63,2.38-9,3.58-16,3.58H160.72V180.28h27.12m-11.68,19.95h9.27c5.62,0,6.79-2.64,6.79-4.85s-1.17-4.86-6.79-4.86h-9.27v9.71m0,19.73h11.68c5.67,0,6.86-2.77,6.86-5.08s-1.19-5.08-6.86-5.08H176.16V220m11.68-40.68H159.72v51.91h29.62q10.83,0,16.55-3.74a12,12,0,0,0,5.71-10.57,12.38,12.38,0,0,0-2.55-7.86,15.84,15.84,0,0,0-7.22-5,13.2,13.2,0,0,0,5.45-4.67,12,12,0,0,0,1.84-6.53,11.43,11.43,0,0,0-5.38-9.86q-5.37-3.7-15.9-3.71Zm-10.68,19.95v-7.71h8.27c3.86,0,5.79,1.28,5.79,3.86s-1.93,3.85-5.79,3.85Zm0,19.73V210.8h10.68q5.86,0,5.86,4.08T187.84,219Z" transform="translate(0 0)"/><path class="cls-2" d="M234.59,180.28v38.34h23.76v11.57H218.84V180.28h15.75m1-1H217.84v51.91h41.51V217.62H235.59V179.28Z" transform="translate(0 0)"/><path class="cls-2" d="M306,180.28v11.2H280.68v8.08h22.26v10.61H280.68V219H307v11.2H265.24V180.28H306m1-1H264.24v51.91H308V218H281.68v-6.82h22.26V198.56H281.68v-6.08H307v-13.2Z" transform="translate(0 0)"/></g></svg>